Coordinates
version=1
nRows=12
nColumns=33
inDegrees=yes

Units are S.I. units (second, meters, Newtons, ...)
Angles are in degrees.

endheader
time	ground_thorax_rot_x	ground_thorax_rot_y	ground_thorax_rot_z	ground_thorax_tx	ground_thorax_ty	ground_thorax_tz	clav_prot_r	clav_elev_r	scapula_abduction_r	scapula_elevation_r	scapula_upward_rot_r	scapula_winging_r	shoulder_elv_r	plane_of_elev_r	axial_rot_r	elbow_flexion_r	pro_sup_r	wrist_flex_r	wrist_dev_r	clav_prot_l	clav_elev_l	scapula_abduction_l	scapula_elevation_l	scapula_upward_rot_l	scapula_winging_l	shoulder_elv_l	plane_of_elev_l	axial_rot_l	elbow_flexion_l	pro_sup_l	wrist_flex_l	wrist_dev_l
      5.05000000	     36.96908913	      7.35294334	     12.72607682	   -142.11040958	    814.78976115	     -1.78072283	     17.29665215	     41.11407204	     45.00000000	     45.00000000	    -34.57953339	  -4045.38034551	  -1369.70975392	     33.82867219	     25.63733775	   1451.91744625	     15.35141640	     18.25889615	     10.09704607	      8.09839580	    -45.00000000	    -45.00000000	     45.00000000	    -15.84088399	    815.28385814	  -2256.72327143	    137.41614902	    179.99999979	    366.20364559	     17.17312589	     10.99846813	    -20.71119023
      5.06000000	     36.98439463	      7.36727895	     12.74053408	   -146.69790286	    816.24221836	     -1.86063832	     17.20275129	     41.01839070	     44.94669143	     45.00000000	    -34.91775341	  -4045.73561739	  -1369.62075492	     33.74265154	     26.46956686	   1451.99107429	     15.78841976	     18.37523498	      9.72924678	      8.37268411	    -45.00000000	    -45.00000000	     45.00000000	    -16.47052841	    815.78644423	  -2256.41839945	    137.40284035	    179.99999979	    366.37643147	     16.40227937	     10.90934642	    -20.79223743
      5.07000000	     36.95227460	      7.66013444	     12.96431854	   -151.36844534	    817.67742832	     -1.93411258	     17.12011732	     40.79536984	     44.59540310	     45.00000000	    -35.60104664	  -4045.91357577	  -1369.29223504	     33.69285811	     27.05494717	   1452.15823587	     16.37738083	     18.49051273	      9.30799037	      8.73790359	    -45.00000000	    -45.00000000	     45.00000000	    -17.64363868	    816.16174309	  -2256.06088398	    137.36431983	    179.99999979	    366.41598123	     15.71709361	     10.79844220	    -20.86877429
      5.08000000	     36.84597258	      8.12258815	     13.39529897	   -156.12193732	    819.09297030	     -1.99006394	     17.03675589	     40.58545053	     44.00877800	     45.00000000	    -36.88702253	  -4045.81144361	  -1368.65112485	     33.77551183	     26.55172493	   1452.25990905	     17.21314355	     18.64525696	      9.13502547	      9.02148032	    -45.00000000	    -44.84344332	     45.00000000	    -19.44266868	    816.30378919	  -2255.55855388	    137.43961419	    179.99999979	    366.55086323	     15.01758943	     10.47772146	    -20.99484502
      5.09000000	     36.93981072	      7.95283478	     13.22046486	   -160.92356931	    820.47543572	     -2.03113729	     16.81517010	     40.47516413	     44.01655197	     45.00000000	    -36.52840523	  -4046.38064700	  -1368.82479946	     33.63942902	     29.10199271	   1452.51326495	     18.43560564	     18.66999161	      8.48060676	      9.20006561	    -45.00000000	    -44.79560919	     45.00000000	    -19.70529066	    816.83790774	  -2255.40092019	    137.41181279	    179.99999979	    366.49111259	     14.56703055	     10.54834376	    -20.97761278
      5.10000000	     36.92304584	      8.22905435	     13.52187777	   -165.74558911	    821.81458283	     -2.06037802	     16.81968139	     40.29554230	     43.70655570	     45.00000000	    -37.21454906	  -4046.55402345	  -1368.51850131	     33.56689173	     30.25679720	   1452.74714040	     19.63182194	     18.68383611	      7.93984950	      9.32057648	    -45.00000000	    -44.24255025	     45.00000000	    -21.48918600	    816.99267689	  -2254.99295153	    137.27174263	    179.99999979	    366.53057555	     14.28034943	     10.40432888	    -21.06263560
      5.11000000	     36.95824538	      8.28187666	     13.58217901	   -170.52137986	    823.08664624	     -2.09114040	     16.71173758	     40.16077622	     43.54355336	     45.00000000	    -37.69926698	  -4046.84324765	  -1368.36319944	     33.61943629	     31.93737956	   1452.86960828	     21.10320518	     18.69420321	      7.55192848	      9.43280293	    -45.00000000	    -43.83662837	     45.00000000	    -22.73335976	    817.14997521	  -2254.69009492	    137.23265892	    179.99999979	    366.45769682	     14.12611416	     10.25677294	    -21.07993080
      5.12000000	     36.90052310	      8.59098959	     13.98565933	   -175.23084800	    824.28087018	     -2.12391971	     16.75553281	     39.91495164	     43.34805513	     45.00000000	    -38.70782004	  -4046.98101050	  -1368.08199910	     33.56280264	     32.73955519	   1453.08648940	     22.83559586	     18.66008385	      7.05840165	      9.59397641	    -45.00000000	    -43.39219008	     45.00000000	    -24.42573389	    817.35822391	  -2254.33961588	    137.23339319	    179.99999979	    366.46720542	     14.19575143	     10.10440176	    -21.17150351
      5.13000000	     36.81316898	      8.99803674	     14.46281653	   -179.83382028	    825.38137931	     -2.16743866	     16.73498034	     39.58939240	     42.90473609	     45.00000000	    -40.62005149	  -4046.76332342	  -1367.21231171	     33.75419918	     31.05798521	   1453.30549771	     25.85774999	     18.92049735	      7.18284837	      9.58848227	    -45.00000000	    -42.49019197	     45.00000000	    -26.83987345	    817.07619936	  -2253.71578559	    137.34554060	    179.99999979	    366.56004138	     14.65812572	      9.50300716	    -21.33028810
      5.14000000	     36.87071016	      8.99544121	     14.37947561	   -184.31246206	    826.37681893	     -2.21621598	     16.71301385	     39.48391135	     42.97523315	     45.00000000	    -40.29356293	  -4047.34246797	  -1367.64101879	     33.52844559	     33.83911922	   1453.65384375	     28.61711993	     18.68523775	      6.30861211	      9.77004303	    -45.00000000	    -42.61524480	     45.00000000	    -27.16708966	    817.78682932	  -2253.77807184	    137.23903832	    179.99999979	    366.45376118	     15.06609479	      9.68591586	    -21.38283199
      5.15000000	     36.79359782	      9.40723161	     14.80530589	   -188.65924700	    827.26484586	     -2.26553471	     16.74225834	     39.32120025	     42.45967183	     45.00000000	    -41.66475356	  -4047.12933773	  -1366.93420803	     33.57978558	     32.94694078	   1453.95348151	     32.44666064	     18.78846897	      6.13007976	      9.79220544	    -45.00000000	    -41.94504205	     45.00000000	    -29.41830351	    817.59806367	  -2253.31262577	    137.31372958	    179.99999979	    366.40387961	     15.95980785	      9.18953438	    -21.53612679
      5.16000000	     36.78345428	      9.35572449	     14.71079633	   -192.88228176	    828.04437288	     -2.30125648	     16.69620119	     39.02833177	     42.61479458	     45.00000000	    -41.87090261	  -4047.57510294	  -1367.32695179	     33.50232853	     35.07860227	   1454.24863342	     35.88159958	     18.55377082	      5.52471402	      9.99733792	    -45.00000000	    -41.91224829	     45.00000000	    -29.89560149	    818.28356343	  -2253.34847491	    137.12240797	    179.99999979	    366.34198734	     16.75758034	      9.26220380	    -21.62657774
